<mxfile host="app.diagrams.net" agent="Mozilla/5.0 (X11; Linux x86_64) AppleWebKit/537.36 (KHTML, like Gecko) Chrome/132.0.0.0 Safari/537.36" version="26.0.10">
  <diagram name="Page-1" id="-P0grLWNwleTpQByWkEQ">
    <mxGraphModel dx="890" dy="613" grid="1" gridSize="10" guides="1" tooltips="1" connect="1" arrows="1" fold="1" page="1" pageScale="1" pageWidth="1100" pageHeight="850" math="0" shadow="0">
      <root>
        <mxCell id="0" />
        <mxCell id="1" parent="0" />
        <mxCell id="vSYj0QuVzOI8qMEle1At-1" value="Vertex AI" style="sketch=0;html=1;verticalAlign=top;labelPosition=center;verticalLabelPosition=bottom;align=center;spacingTop=-6;fontSize=11;fontStyle=1;fontColor=#999999;shape=image;aspect=fixed;imageAspect=0;image=data:image/svg+xml,PHN2ZyB4bWxucz0iaHR0cDovL3d3dy53My5vcmcvMjAwMC9zdmciIGlkPSJzdmc1IiB2ZXJzaW9uPSIxLjEiIHZpZXdCb3g9IjAgMCAyMzkuNzA4MjUgMjc0Ljg2MzI4IiBoZWlnaHQ9IjI3NC44NjMyOG1tIiB3aWR0aD0iMjM5LjcwODI1bW0iPiYjeGE7ICAmI3hhOyAgPGRlZnMgaWQ9ImRlZnMyIi8+JiN4YTsgIDxnIHRyYW5zZm9ybT0idHJhbnNsYXRlKC02Ni42ODYzNjEsNjAuMjU5NzY2KSIgaWQ9ImxheWVyMSI+JiN4YTsgICAgPGcgc3R5bGU9Im9wYWNpdHk6MC45OSIgaWQ9InBhdGg4NjkiLz4mI3hhOyAgICA8ZyBzdHlsZT0ib3BhY2l0eTowLjk5IiBpZD0icGF0aDg2OS0yIi8+JiN4YTsgICAgPGcgc3R5bGU9Im9wYWNpdHk6MC45OSIgaWQ9InBhdGg4NjktMyIvPiYjeGE7ICAgIDxnIHN0eWxlPSJvcGFjaXR5OjAuOTkiIGlkPSJwYXRoODY5LTEiLz4mI3hhOyAgICA8ZyBzdHlsZT0ib3BhY2l0eTowLjk5IiBpZD0icGF0aDg2OS04Ii8+JiN4YTsgICAgPGcgc3R5bGU9Im9wYWNpdHk6MC45OSIgaWQ9InBhdGg4NzEiPiYjeGE7ICAgICAgPHBhdGggaWQ9InBhdGgzMzU3IiBkPSJtIDc3LjE4Njc3NSwxMTAuODgyNTIgOTQuMjM5Njk1LDY5Ljc0NTc1IiBzdHlsZT0iY29sb3I6IzAwMDAwMDtmaWxsOiMwMDgwMDA7c3Ryb2tlLXdpZHRoOjIxO3N0cm9rZS1saW5lY2FwOnJvdW5kOy1pbmtzY2FwZS1zdHJva2U6bm9uZSIvPiYjeGE7ICAgIDwvZz4mI3hhOyAgICA8ZyBzdHlsZT0ib3BhY2l0eTowLjk5IiBpZD0icGF0aDg3MyIvPiYjeGE7ICAgIDxwYXRoIGQ9Im0gMTUzLjA4MTIsMTA5LjAzNTY4IGMgMCw2LjEyMDQ3IC00Ljk2MTYyLDExLjA4MjA5IC0xMS4wODIwOSwxMS4wODIwOSAtNi4xMjA0NywwIC0xMS4wODIwOCwtNC45NjE2MiAtMTEuMDgyMDgsLTExLjA4MjA5IDAsLTYuMTIwNDYgNC45NjE2MiwtMTEuMDgyMDgyIDExLjA4MjA4LC0xMS4wODIwODcgNi4xMjA0NywtMTBlLTcgMTEuMDgyMDksNC45NjE2MTcgMTEuMDgyMDksMTEuMDgyMDg3IHogbSAwLC05Mi41MTMzODEgYyAwLDYuMTIwNDY5IC00Ljk2MTYyLDExLjA4MjA5IC0xMS4wODIwOSwxMS4wODIwODkgLTYuMTIwNDcsLTVlLTYgLTExLjA4MjA4LC00Ljk2MTYyNCAtMTEuMDgyMDgsLTExLjA4MjA4OSAwLC02LjEyMDQ2NSA0Ljk2MTYxLC0xMS4wODIwODQ2IDExLjA4MjA4LC0xMS4wODIwODk2IDYuMTIwNDcsLTZlLTcgMTEuMDgyMDksNC45NjE2MjA2IDExLjA4MjA5LDExLjA4MjA4OTYgeiBtIDAsLTMyLjkyMTY4MyBjIDAsNi4xMjA0NjkgLTQuOTYxNjIsMTEuMDgyMDkwNSAtMTEuMDgyMDksMTEuMDgyMDg5OSAtNi4xMjA0NywtNWUtNiAtMTEuMDgyMDgsLTQuOTYxNjIzOSAtMTEuMDgyMDgsLTExLjA4MjA4OTkgMCwtNi4xMjA0NjUgNC45NjE2MSwtMTEuMDgyMDg0IDExLjA4MjA4LC0xMS4wODIwODkgNi4xMjA0NywtMTBlLTcgMTEuMDgyMDksNC45NjE2MiAxMS4wODIwOSwxMS4wODIwODkgeiBNIDEwOC43NDE4MSw3Ni43MTgwMSBjIDAsNi4xMjA0NjkgLTQuOTYxNjIsMTEuMDgyMDg5IC0xMS4wODIwODksMTEuMDgyMDg5IC02LjEyMDQ2OSwwIC0xMS4wODIwODksLTQuOTYxNjIgLTExLjA4MjA4OSwtMTEuMDgyMDg5IDAsLTYuMTIwNDY5IDQuOTYxNjIsLTExLjA4MjA4OSAxMS4wODIwODksLTExLjA4MjA4OSA2LjEyMDQ2OSwwIDExLjA4MjA4OSw0Ljk2MTYyIDExLjA4MjA4OSwxMS4wODIwODkgeiBtIDAsLTMyLjY4MDYyNiBjIDAsNi4xMjA0NjkgLTQuOTYxNjIsMTEuMDgyMDg5IC0xMS4wODIwODksMTEuMDgyMDg5IC02LjEyMDQ2OSwwIC0xMS4wODIwODksLTQuOTYxNjIgLTExLjA4MjA4OSwtMTEuMDgyMDg5IDAsLTYuMTIwNDY5IDQuOTYxNjIsLTExLjA4MjA4OSAxMS4wODIwODksLTExLjA4MjA4OSA2LjEyMDQ2OSwwIDExLjA4MjA4OSw0Ljk2MTYyIDExLjA4MjA4OSwxMS4wODIwODkgeiBtIDAsLTMyLjY3ODI0MyBjIDAsNi4xMjA0NjkgLTQuOTYxNjIsMTEuMDgyMDkgLTExLjA4MjA4OSwxMS4wODIwOSAtNi4xMjA0NjksMCAtMTEuMDgyMDksLTQuOTYxNjIxIC0xMS4wODIwODksLTExLjA4MjA5IDAsLTYuMTIwNDY4OCA0Ljk2MTYyLC0xMS4wODIwODkwNyAxMS4wODIwODksLTExLjA4MjA4OTA3IDYuMTIwNDY5LDAgMTEuMDgyMDg5LDQuOTYxNjIwMjcgMTEuMDgyMDg5LDExLjA4MjA4OTA3IHogTSAxNDIsMzcuNzc5Mjk3IGMgLTUuNzk4OTksMCAtMTAuNSw0LjcwMTAxIC0xMC41LDEwLjUgdiAyOC45OTQxNCBjIDAsNS43OTg5OSA0LjcwMTAxLDEwLjUgMTAuNSwxMC41IDUuNzk4OTksMCAxMC41LC00LjcwMTAxIDEwLjUsLTEwLjUgdiAtMjguOTk0MTQgYyAwLC01Ljc5ODk5IC00LjcwMTAxLC0xMC41IC0xMC41LC0xMC41IHogbSAtOC45ZS00LDEwLjUwMDM3NyBWIDc3LjI3MzY5MSBNIDk3LjY2MDE1NiwtNjAuMjU5NzY2IGMgLTUuNzk4OTksMCAtMTAuNSw0LjcwMTAxIC0xMC41LDEwLjUgdiAyOC45OTQxNDEgYyAwLDUuNzk4OTkgNC43MDEwMSwxMC41IDEwLjUsMTAuNSA1Ljc5ODk5NCwyZS02IDEwLjUwMDAwNCwtNC43MDEwMDkgMTAuNTAwMDA0LC0xMC41IHYgLTI4Ljk5NDE0MSBjIDAsLTUuNzk4OTkxIC00LjcwMTAxLC0xMC41MDAwMDIgLTEwLjUwMDAwNCwtMTAuNSB6IG0gLTQuMzVlLTQsMTAuNDk5NzY1IHYgMjguOTk0MDE3IE0gNzUuNjM0NzY2LDEwMC40OTgwNSBjIC0yLjc1NDE5MSwwLjQxMTQ4IC01LjIzMjExOSwxLjkwMDIxIC02Ljg4ODY3Miw0LjEzODY3IC0zLjQ0ODg3NCw0LjY2MTU3IC0yLjQ2NjAyNCwxMS4yMzYzNSAyLjE5NTMxMiwxNC42ODU1NSBsIDk0LjIzODI4NCw2OS43NDYwOSAxMi43ODYwNCwtMTYuNjY2NTkgLTk0LjUzMjEzNiwtNjkuOTU4NDEgYyAtMi4yMzg2OTksLTEuNjU3MTYgLTUuMDQ0MTAxLC0yLjM1NjkzIC03Ljc5ODgyOCwtMS45NDUzMSB6IiBzdHlsZT0iY29sb3I6IzAwMDAwMDtvcGFjaXR5OjAuOTk7ZmlsbDojYjVjYmY5O2ZpbGwtb3BhY2l0eToxO3N0cm9rZS13aWR0aDoyMTtzdHJva2UtbGluZWNhcDpyb3VuZDtzdHJva2UtbGluZWpvaW46cm91bmQ7LWlua3NjYXBlLXN0cm9rZTpub25lIiBpZD0icGF0aDE4NDAtNSIvPiYjeGE7ICAgIDxwYXRoIGQ9Im0gMTk3LjM5Mjc2LDE0MS45NzM2NiBjIDAsNi4xMjA0NyAtNC45NjE2MiwxMS4wODIwOSAtMTEuMDgyMDksMTEuMDgyMDkgLTYuMTIwNDcsMCAtMTEuMDgyMDksLTQuOTYxNjIgLTExLjA4MjA5LC0xMS4wODIwOSAwLC02LjEyMDQ3IDQuOTYxNjIsLTExLjA4MjA5IDExLjA4MjA5LC0xMS4wODIwOSA2LjEyMDQ3LDAgMTEuMDgyMDksNC45NjE2MiAxMS4wODIwOSwxMS4wODIwOSB6IG0gMCwtOTIuNzI1NTg2IGMgMCw2LjEyMDQ2OSAtNC45NjE2MiwxMS4wODIwOSAtMTEuMDgyMDksMTEuMDgyMDg5IC02LjEyMDQ3LDFlLTYgLTExLjA4MjA5LC00Ljk2MTYyIC0xMS4wODIwOSwtMTEuMDgyMDg5IDAsLTYuMTIwNDcgNC45NjE2MiwtMTEuMDgyMDkxIDExLjA4MjA5LC0xMS4wODIwOSA2LjEyMDQ3LC0xZS02IDExLjA4MjA5LDQuOTYxNjIgMTEuMDgyMDksMTEuMDgyMDkgeiBtIDAsLTMyLjg1NDQ1OCBjIDAsNi4xMjA0NjkgLTQuOTYxNjIsMTEuMDgyMDkgLTExLjA4MjA5LDExLjA4MjA4OSAtNi4xMjA0NywxMGUtNyAtMTEuMDgyMDksLTQuOTYxNjIgLTExLjA4MjA5LC0xMS4wODIwODkgMCwtNi4xMjA0NjkgNC45NjE2MiwtMTEuMDgyMDkwMyAxMS4wODIwOSwtMTEuMDgyMDg5NyA2LjEyMDQ3LC02ZS03IDExLjA4MjA5LDQuOTYxNjIwNyAxMS4wODIwOSwxMS4wODIwODk3IHogbSAxMDAuMDI5MTEsODQuMDA2Nzc0IGMgLTIuNzU1MTcsLTAuNDA1MDA0IC01LjU1ODM4LDAuMzAxMDcgLTcuNzkyOTYsMS45NjI4OSBsIC05NC43NDYxLDcwLjQzNzUgMTIuNTI5MywxNi44NTM1MiA5NC43NDYwOSwtNzAuNDM3NSBjIDQuNjU0MTIsLTMuNDU5NzggNS42MjIxNSwtMTAuMDM3NDggMi4xNjIxMSwtMTQuNjkxNDEgLTEuNjYxMzYsLTIuMjM1NTMgLTQuMTQyODcsLTMuNzE5MzcgLTYuODk4NDQsLTQuMTI1IHogTSAxODYuMzEwNTUsNzAuODY3MTg3IGMgLTUuNzk4OTksMCAtMTAuNSw0LjcwMTAxIC0xMC41LDEwLjUgdiAyOC45OTQxNDMgYyAwLDUuNzk4OTkgNC43MDEwMSwxMC41IDEwLjUsMTAuNSA1Ljc5ODk5LDAgMTAuNSwtNC43MDEwMSAxMC41LC0xMC41IFYgODEuMzY3MTg3IGMgMCwtNS43OTg5OSAtNC43MDEwMSwtMTAuNSAtMTAuNSwtMTAuNSB6IG0gMS4yZS00LDEwLjUwMDgyNyB2IDI4Ljk5NDAxNiIgc3R5bGU9ImNvbG9yOiMwMDAwMDA7b3BhY2l0eTowLjk5O2ZpbGw6Izc2OWVmNTtmaWxsLW9wYWNpdHk6MTtzdHJva2Utd2lkdGg6MjE7c3Ryb2tlLWxpbmVjYXA6cm91bmQ7c3Ryb2tlLWxpbmVqb2luOnJvdW5kOy1pbmtzY2FwZS1zdHJva2U6bm9uZSIgaWQ9InBhdGgxODQwLTMiLz4mI3hhOyAgICA8cGF0aCBkPSJtIDE4Ni4zNDU3LDE3MC42ODE2NCBjIC0xMi4wNDU3LDAgLTIxLjk2MDkzLDkuOTE1MjQgLTIxLjk2MDkzLDIxLjk2MDk0IDAsMTIuMDQ1NyA5LjkxNTIzLDIxLjk2MDk0IDIxLjk2MDkzLDIxLjk2MDk0IDEyLjA0NTcsMCAyMS45NjA5NCwtOS45MTUyNCAyMS45NjA5NCwtMjEuOTYwOTQgMCwtMTIuMDQ1NyAtOS45MTUyNCwtMjEuOTYwOTQgLTIxLjk2MDk0LC0yMS45NjA5NCB6IG0gMCwxNCBjIDQuNDc5NTUsMCA3Ljk2MDk0LDMuNDgxMzkgNy45NjA5NCw3Ljk2MDk0IDAsNC40Nzk1NSAtMy40ODEzOSw3Ljk2MDk0IC03Ljk2MDk0LDcuOTYwOTQgLTQuNDc5NTQsMCAtNy45NjA5MywtMy40ODEzOSAtNy45NjA5MywtNy45NjA5NCAwLC00LjQ3OTU1IDMuNDgxMzksLTcuOTYwOTQgNy45NjA5MywtNy45NjA5NCB6IE0gMjg2LjE2MTM3LDc2Ljc5MTAwOCBBIDExLjA4MjA4OSwxMS4wODIwODkgMCAwIDEgMjc1LjA3OTI4LDg3Ljg3MzA5NyAxMS4wODIwODksMTEuMDgyMDg5IDAgMCAxIDI2My45OTcyLDc2Ljc5MTAwOCAxMS4wODIwODksMTEuMDgyMDg5IDAgMCAxIDI3NS4wNzkyOCw2NS43MDg5MTkgMTEuMDgyMDg5LDExLjA4MjA4OSAwIDAgMSAyODYuMTYxMzcsNzYuNzkxMDA4IFogbSAwLC0zMy4xNDU0MzUgYSAxMS4wODIwODksMTEuMDgyMDg5IDAgMCAxIC0xMS4wODIwOSwxMS4wODIwODkgMTEuMDgyMDg5LDExLjA4MjA4OSAwIDAgMSAtMTEuMDgyMDgsLTExLjA4MjA4OSAxMS4wODIwODksMTEuMDgyMDg5IDAgMCAxIDExLjA4MjA4LC0xMS4wODIwOSAxMS4wODIwODksMTEuMDgyMDg5IDAgMCAxIDExLjA4MjA5LDExLjA4MjA5IHogbSAwLC05Mi40NjgyMjQgYSAxMS4wODIwODksMTEuMDgyMDg5IDAgMCAxIC0xMS4wODIwOSwxMS4wODIwOSAxMS4wODIwODksMTEuMDgyMDg5IDAgMCAxIC0xMS4wODIwOCwtMTEuMDgyMDkgMTEuMDgyMDg5LDExLjA4MjA4OSAwIDAgMSAxMS4wODIwOCwtMTEuMDgyMDg5IDExLjA4MjA4OSwxMS4wODIwODkgMCAwIDEgMTEuMDgyMDksMTEuMDgyMDg5IHogbSAtNDQuMjEzNjIsMzIuNTU3NzE2IGEgMTEuMDgyMDg5LDExLjA4MjA4OSAwIDAgMSAtMTEuMDgyMDksMTEuMDgyMDg5OSAxMS4wODIwODksMTEuMDgyMDg5IDAgMCAxIC0xMS4wODIwOSwtMTEuMDgyMDg5OSAxMS4wODIwODksMTEuMDgyMDg5IDAgMCAxIDExLjA4MjA5LC0xMS4wODIwODkgMTEuMDgyMDg5LDExLjA4MjA4OSAwIDAgMSAxMS4wODIwOSwxMS4wODIwODkgeiBtIDAsOTIuNTM1NDQzIGEgMTEuMDgyMDg5LDExLjA4MjA4OSAwIDAgMSAtMTEuMDgyMDksMTEuMDgyMDg5IDExLjA4MjA4OSwxMS4wODIwODkgMCAwIDEgLTExLjA4MjA5LC0xMS4wODIwODkgMTEuMDgyMDg5LDExLjA4MjA4OSAwIDAgMSAxMS4wODIwOSwtMTEuMDgyMDkgMTEuMDgyMDg5LDExLjA4MjA4OSAwIDAgMSAxMS4wODIwOSwxMS4wODIwOSB6IG0gMCwzMi44ODIzMTIgYSAxMS4wODIwODksMTEuMDgyMDg5IDAgMCAxIC0xMS4wODIwOSwxMS4wODIwOSAxMS4wODIwODksMTEuMDgyMDg5IDAgMCAxIC0xMS4wODIwOSwtMTEuMDgyMDkgMTEuMDgyMDg5LDExLjA4MjA4OSAwIDAgMSAxMS4wODIwOSwtMTEuMDgyMDkzIDExLjA4MjA4OSwxMS4wODIwODkgMCAwIDEgMTEuMDgyMDksMTEuMDgyMDkzIHogbSAzMy4xMzIzMywtMTM2LjU4ODM2NyBhIDEwLjUsMTAuNSAwIDAgMCAtMTAuNSwxMC41IHYgMjguOTk0MTQxIGEgMTAuNSwxMC41IDAgMCAwIDEwLjUsMTAuNSAxMC41LDEwLjUgMCAwIDAgMTAuNSwtMTAuNSB2IC0yOC45OTQxNDEgYSAxMC41LDEwLjUgMCAwIDAgLTEwLjUsLTEwLjUgeiBtIC04ZS00LDEwLjUwMDc1OSBWIDEyLjA1OTIyOSBNIDIzMC44NjUyMyw1LjI0MDIzNDQgYSAxMC41LDEwLjUgMCAwIDAgLTEwLjUsMTAuNDk5OTk5NiB2IDI4Ljk5NDE0MSBhIDEwLjUsMTAuNSAwIDAgMCAxMC41LDEwLjUgMTAuNSwxMC41IDAgMCAwIDEwLjUsLTEwLjUgViAxNS43NDAyMzQgYSAxMC41LDEwLjUgMCAwIDAgLTEwLjUsLTEwLjQ5OTk5OTYgeiBtIDQuMmUtNCwxMC40OTk0MzA2IHYgMjguOTk0MDE3IiBzdHlsZT0iY29sb3I6IzAwMDAwMDtvcGFjaXR5OjAuOTk7ZmlsbDojNTk4NmYyO2ZpbGwtb3BhY2l0eToxO3N0cm9rZS1saW5lY2FwOnJvdW5kO3N0cm9rZS1saW5lam9pbjpyb3VuZDstaW5rc2NhcGUtc3Ryb2tlOm5vbmUiIGlkPSJwYXRoMTg0MC04Ii8+JiN4YTsgIDwvZz4mI3hhOzwvc3ZnPg==;" vertex="1" parent="1">
          <mxGeometry x="638.57" y="310" width="88.1" height="100" as="geometry" />
        </mxCell>
        <mxCell id="vSYj0QuVzOI8qMEle1At-2" value="Spring Boot API&#xa;" style="shape=image;imageAspect=0;aspect=fixed;verticalLabelPosition=bottom;verticalAlign=top;image=data:image/png,iVBORw0KGgoAAAANSUhEUgAAAMwAAADACAMAAAB/Pny7AAAAaVBMVEX///9tsz9rsjxpsThmsDNkry9hrin9/vxfrSX2+vT6/PlxtUX0+fHk8N7D3rTv9ut4uFCp0JPY6c/J4b3q8+Xf7dd+u1laqxqRxHS82qyLwWqGv2R1t0uayH+Vxnmx1J6fy4fR5cZUqQcATs4FAAAO3ElEQVR4nM1d2YKiOhCVbIR9lR0B//8jOwFtQQmETTxPc29PjzkmtVcql8s26E1GEFC2AkCSN+rGtWxkYlUgRpuZdIAxrCztLCrmtSZ0+6a8ACgtfecMKk5TUrIjkw6YJk34bSomo4J3p9LSiZPgq7ujBaVyDJWWDrzZ5vwidtpAvzTwnrLyDoCVWzCr2koJwrNwahfBA6m0dJBRWtPLMO/Bdi6pAY+m0tKBhje5jpqWW6k4Of4GlZYOMq4TK6Ew2miUKrqXiZQBjGtdtBIPA2PTObtmu9pICdDIH1cEpgIUVK+nogXGcepYBATTUaXlscOOstX2KPTIt6SlD0DLEcmxXLYW4DYruTQZPYEKB4k+ZEP12u8VVeu4nHHEnkCwehMcn20M00T4tuacaRU444g9AUg9WLVZI4WmRIFrzllY7hB+bQLO/P4xAey7Vdnu4HQxFys7mws7atFrE8IMKcyXSamC66X+mZV/01CKAI0nG5WxQMz6O3cFRlM+wgh88AtcGBtsdwu6Mo89ZiR09iXTZU6Af7iHLAsQp1ypMe9QIZ7W7RBZdM6ar/mV8wCUs6lidrra8MCi7E8LQrTmFKsvAtubix+z6KA7cA4/Z/4Mgz6X09XYENQu4L8O0yuq0EroV79zOdVUjoKdepQ/Y9CGMGdTUmga9+e4KFxH/2uwMIcKmYmuH/CjX+QCeo6aVhEltmW4XPNf5MLOVc/pDNg5SySExrmd5yZPAIL+2q8RBGSejOadFb5MAsSDJIZTYyWeV852fPa6xwDJmy/G4gBcz3Hxf83AtIDg3RVjChfAGS6W8YvCD40PzRUmLBqYDjf1ZP9axXagwv5IO6lMaOh0hOb9osAwLiN6K1UAyqa4NL+4L7AIxnQwV85TQuP8ohfDAs3R1KbKhIZMKOf6NyLLARAULdhjnqe4XGArv6eVsSLUWEEBoCv64W+kL4agkfgchczSGKJw0/s5lwziySxsDoEiSGs0xY9JP2BqbIoLFxpYj/7EKX9sYyBMZqKvhpEZtTSqfX7ucgBUVHO5cZNtXjRGOPwt6Qcka+ajFSY0n04b88nSnwpiIK1ksmIVHrU0jvJL0h+7vlQayacKun0UnlXvh5wyLLctfNmxAvMPoXF+x1mGcWJJt9IBAD7Vd/0rahmQYklJjK37w65q97NJdICwWFYQa2IFv3c//MTGAARd6fTxaxdQMhQw8wekHyCQe8sryCw+c4chwvkeJsRKIqvCBkiYpRmYTe3s+BKRorbX9Y/wEtqgVcAGZ3plgMRZ6q9t7bvGb3Xn5LyNATguPD9cKPY9OG9m0z/rlEESo9oPN/XBmSzaVHoawDvDXWZE7obna+v3pIPOojD6MrNO8k0yzP+AiNDY9YJd2uXbInr6/5UExoHiDzrAfwBgZF4gV7+Tgj/QAHsbmXbpiIMtXVEMo3BdN4ryLKkr29/9+oKFmQZ4Wigr2+uUsfODMIJK0a78dqtrr0pTO2iuV8s57ApGWECAnjsd7JL4AwhTEGU3vv7Av4bm1+7DcJF/tjeo1Xa/DBJiZHXKzpCzVTkth8bCSvooeIS3jacMEhrVdmPt0Z2/Bjx5QbzuS/Q3nTJmwF3vPCItWEiDkm4F9oakDKSkbLYZ8B3gEwUULRlzfSIDxqDa4FStwPjXdmV2Mm5d7nBtXwmgiv3tPRmv01g5VO5tWf267pTBuZT2IRhvleH9JDFfjbqqgYFRWdnvvQn2uBNk8qozX4+2IpMBkFufcgdRUCTj/U2kZn8wl4sMBDf5dsI9cc0FP0iJgnJmNZ3FIoPd8XsgxyMRZdRs5moqahtBL+SSCW7oHI6QipI3AQIKb9ZaWsegKzJbO8EzRN9iwwzN3byoCyt/96+bln+EhbDiz3MY9/CiLkplgPs5kt+iugtb/3kTZuxf1CWtZTDeMdhdCitHQr3Dw8u4uZgLkv8QnsiFbYw4pc4bz2h6ucqTgZO3QI+G78bij3dKpJDqEkgrs/dU+3ehefHEVUbuz2BPXjPDReWs3dE8rpyMg/tkqJbOMgFFqrf7KJgJcScOucZooNullIz/off9RMULqk2wN+FD8Uo5zC6SXfIwPzXIDw0IJ6Mn5jaD6GLIHTL49TEdAyQYJ5Mr4GTci9whu58qMLwBHk2XoHnqT5IMmujF+wL0e+8K0DgWkInPzSWx8HHuUnablJUiM9PUfTSY2h1vKetBmgzaOq1iG3jCFU5PB+nIGDJkyAkppRfCCDHvY06ZysoMTk4LLRlMbtWnG2gvndGUUs34zI3RKwAUYMydc91rjea8xExbq2OhBvwqTzz7dXJHE+bzZMiZquxaIO6vz/49HgKgcpYMzE+MyByXu8Hi0P/1F8s2npndmBO9ZbXlQur5NB0Pm+fJnBrGRNwSQizhr1sZVKg95zWj7DzxT9ogmMyPOmtvOPHsTDSdadoyEGkb9O7qG5YaytYU7SyKbDI4A8pZukzr6vmwkNI/AQT8juP0raxZB+8oaBXvU2FBYSqlf2zG/K5dphsaYHaOLtOqrpUfyU3+U1PGItZn6uaCezZH48lFdrAMb9EAQOX9AFMic4pi1h+zoaQllttMGKmXcCo9C+TEb2eo1eNOEpSdYchL57hUL9rkzhRneP/1ozABDdnf8JlrTViYoE71AIuvQB6I6CHFQFj0+wCXFe5aq1ONc+NX0w6F/uSyYBBTeyXrzo3IVOfM9+2/FT1z32Qu7H/B5KVMyiUimBCatVP31kJv3Oc5ITf5X+PdPzDiFsmaUGczacS9oaXGkwvOF6geix0uXPPQ2oFiDYC+Gv473v88JbxkDJvKC2btiK2LOaEBvprLsG7/I3phIeP3P6Hz7p+u4VSf8M7QFx2AIPq/vguViSLZJ0x2tgDoPOIJh+aLMvM6YoN5TDLgUv+c3WqJLzR/jYzWnwg5PxdniIoq3WS9y+Sthm+p5gb1loCXTpXmzb/xo3rMJ7gJMJuv3gWaR3vhLk4W/jo/Za+AVDybBW0evT0P1c/7XyZZ7EFxFwbfnn7cVdgLCEWdd/vBSQczerHMvLIhuLS9LtCZwi7N473mJol73yQg5eJSkB/zKO7VcGGLyDzauA+DVRn9Iw6WD5Ptrv6h7JV3EY7/A8aR7TJaOhyaDtBU34IAIY/HsPcyTKaoG/DQtFlzUwY2AaBqRbmRD9Uezp1IhRqg3mvp7whLY+jhArz0hjaHww/VcLiBUJ/B7JhGWZV5L0O/A6wrabe5wjeXQXTOFk9ElkNK35spIVnVAMbnzyrvgxpswd3GA4RG1QIUv38aWtmb024MzIey5oiamxY7SjPQHdv4oAJhtq7ToBuTBd6dLk8kNNGeylm7pi79+CRkeOskU624dADjPblvie6d7eg4h41nfFIBOPqcXCiHTm/BT89UdId+r8q5ek1vcGSWNUC3tTrm4YaNqI5GEAeA6Q48SYR2neOxt5EgnB0tJYIatNp91H8UtdHjcmu+2Qzq3Bgf/E6KZnWTUVdXH+94aET5s20pGj24RQYcT2eB+4ZXpB43MgAZ/akof4ai1VujN4kCBUzYttAlCaV3PK7KxeMKSrg18RqniYddUUzEGUYYL49denjUlQAcX5suvHwi0e8xgKprvlfcP9Vwj0r/dYwVUB/fEhVl9kQKTYHiOZaf0JyrndD75IsCELnVprBPzzpnErqif8ZMRBEnkSw6a+E18CI68+YWwG69zX/VngNMiNje+sITHnuz51sP/cDLQDz3yAPASrnxisSjSYDf5RNbdLMWJp3IZESrW43tJQaZf/QUYFhuvbWmpY95f9MGXTxLB8Ba8CXoVlDVmYtkXm8FBNabH5jUqueg7+lHTjo3VMAm+Tznmp96SV5gLPWwC6S4Xj2Q6fWZ/yn2uTebQnHeGUB3UGjQ/SqLXKaYJopVAyox2OONWT35r+JMzDbuIAo52+WgZ4tjyL2t1rZLXiUE+G7Y+g59OKb7f5pRPuvPT14OgnHi+FVOKDtX8jPEAKJ47nlMSfj3/+XJtMLMzG3A95guGVALuGeW7XRbTfV6HheSKUcH+41tY0wMN1k5T+4Duh/1XBQo1wkjNjaLABE28treq8VTtSrYlwDJCwpmtH1yE8TESLzdmPBQNRqk2mgt+YvXjye0IKaUSj9Gxf52UVZ7PiYd2tnw07H8LZi37kBAXS9NUy+SoQMIiWp711e+rTSBw8MChaP1P6EOHqDARmqZ6kU1LbuYOYCQxsXeo458L0fvHyuMYsbgZC8lgPP/KRPq5KhtSO5utXFW4cdC0sz9fFp5Yeh7/e8uQoOLDZpoOj0gd+BdtV1rBpqdGWDklWiy9FHQ5vGPvD8o7I+1cwAcA2/nBugwjSgedfsWNQl1sLt/6KNb4j0a5dP/jD2ZqLp2TXMqzCCsusnftrB+DnYfTnZhRKJyn9S6qmmmE/q2l+P7RNwNV709rfHCwEj7fM89AkbuNUzP8VVYHNcH2v+wwjB0GEzT1DRd11WO3uJVVdc103T47179Jq3KzKAxnchOtQdhXcGou8f1oWZ7nxWVgd8EduqVSR65haE8h2UqRlF0oyZvZVnXnldVVcphv8D/s/K8ukwi18CMBXPF573C2XuBIpglfS9KMRSvT8yTHLSrwLgb9tkD7CZp4haEgY6AEMyjVPlwQpC/lIGTxJ8BUE9mxJnXgxCvrEp1bEr0HoosGe2yP5dNFtkp67f/c+ITFfGapoc+wupN8X75YPW5yN0LmoLTDPTZac9TAbqscXMcWt91FOfVDgYUvWW0EPr1QUcP67Gy5Fe4uLt1WNuVzwy6P2wO+yZYGLIXF/7UIzUApSdtC6C3XV3ysJwqgx0LuKanbhJmCk/SY2Tk6cmtUJv8DHMJaHJIZ6VVf/+oQby6gWMGug2/bGZIMf7y5C4I849esQMBtnUKzCOA33qkDiDl8LF96k35Bh0IjfpoKhx+YhxNB6BidRfaQuj2e+53ZypYuW1pEVoIJ83wYXQwTOzvzuyz7Cw+xOpgegu+P4MkDPJ4d7ODadKcM+YqbJJ4zxfemV9e7lrYWQbtWuO9ThuM4R5ND9v4BNF0QlUKAJJsu+fyBxdg6C19LTwoAAAAAElFTkSuQmCC;" vertex="1" parent="1">
          <mxGeometry x="370" y="430" width="106.26" height="100" as="geometry" />
        </mxCell>
        <mxCell id="vSYj0QuVzOI8qMEle1At-3" value="BigQuery" style="sketch=0;html=1;verticalAlign=top;labelPosition=center;verticalLabelPosition=bottom;align=center;spacingTop=-6;fontSize=11;fontStyle=1;fontColor=#999999;shape=image;aspect=fixed;imageAspect=0;image=data:image/svg+xml,PHN2ZyB4bWxucz0iaHR0cDovL3d3dy53My5vcmcvMjAwMC9zdmciIHhtbG5zOnY9Imh0dHBzOi8vdmVjdGEuaW8vbmFubyIgd2lkdGg9IjIwLjAwMTA0NTIyNzA1MDc4IiBoZWlnaHQ9IjIwLjAwMTA0NTIyNzA1MDc4IiBmaWxsLXJ1bGU9ImV2ZW5vZGQiIHZpZXdCb3g9IjAgMCAyMC4wMDEwNDUyMjcwNTA3OCAyMC4wMDEwNDUyMjcwNTA3OCI+JiN4YTsJPHN0eWxlIHR5cGU9InRleHQvY3NzIj4mI3hhOwkuc3Qwe2ZpbGw6I2FlY2JmYTt9JiN4YTsJLnN0MXtmaWxsOiM2NjlkZjY7fSYjeGE7CS5zdDJ7ZmlsbDojNDI4NWY0O30mI3hhOwk8L3N0eWxlPiYjeGE7CTxwYXRoIGNsYXNzPSJzdDAiIGQ9Ik00LjczIDguODN2Mi42M2E0LjkxIDQuOTEgMCAwIDAgMS43MSAxLjc0VjguODN6Ii8+JiN4YTsJPHBhdGggY2xhc3M9InN0MSIgZD0iTTcuODkgNi40MXY3LjUzQTcuNjIgNy42MiAwIDAgMCA5IDE0YTggOCAwIDAgMCAxIDBWNi40MXoiLz4mI3hhOwk8cGF0aCBjbGFzcz0ic3QwIiBkPSJNMTEuNjQgOS44NnYzLjI5YTUgNSAwIDAgMCAxLjctMS44MlY5Ljg2eiIvPiYjeGE7CTxwYXRoIGNsYXNzPSJzdDIiIGQ9Ik0xNS43NCAxNC4zMmwtMS40MiAxLjQyYS40Mi40MiAwIDAgMCAwIC42bDMuNTQgMy41NGEuNDIuNDIgMCAwIDAgLjU5IDBsMS40My0xLjQzYS40Mi40MiAwIDAgMCAwLS41OWwtMy41NC0zLjU0YS40Mi40MiAwIDAgMC0uNiAwIi8+JiN4YTsJPHBhdGggY2xhc3M9InN0MSIgZD0iTTkgMGE5IDkgMCAxIDAgMCAxOEE5IDkgMCAxIDAgOSAwbTAgMTUuNjlhNi42OCA2LjY4IDAgMCAxIC4wMDctMTMuMzYgNi42OCA2LjY4IDAgMCAxIDQuNzI3IDExLjQwM0E2LjY4IDYuNjggMCAwIDEgOSAxNS42OSIvPiYjeGE7PC9zdmc+;" vertex="1" parent="1">
          <mxGeometry x="630" y="540" width="120" height="120" as="geometry" />
        </mxCell>
        <mxCell id="vSYj0QuVzOI8qMEle1At-4" value="Flutter UI" style="shape=image;imageAspect=0;aspect=fixed;verticalLabelPosition=bottom;verticalAlign=top;image=data:image/png,iVBORw0KGgoAAAANSUhEUgAAAMwAAADACAMAAAB/Pny7AAAAtFBMVEX///9UxfgBV5sptvYATJZLw/js9/6M1fpbx/nm7PJsjLcBU5QAVZr3/P8BUI77/f88wPiY2fuw4fu75fwBTIcArvUBRnwAK0zj9P6j3fsuvfjC6Pw0ufYAJkby9vmD0vpyzfkAN2IBPGsAPpBRfrB9mr+Blr3R7f1xyPgzibsYfbMAP3lUeaRdhbMchr0APHEAKlUAIkgAGj0cgK8AGzYFNVgACyiJo8WJw+YAAEiVrMrA0uOyD7eZAAAFQUlEQVR4nO3caXvaOBQFYIwRuJ04NkshNCkYOu2kdJq0Qzud5f//r7FYWkDyxT5G6Fqj87159EbSPWZpWi0fH0cTd8HYXrgmcb+H5TfbK1cT91KBJJ3GtpeuJLcESMQgsb10JXFPYJapt5hM3Mcsad/2ytXA94Wjpe8tLM+Y35d8jtleuRrc4s5M9haz8RY/k03HKcsU7P2e7ZWrcWlfEocsvvelheF7F96S3xd+ZyyZgr3PcSaD/SIcsvh9MRuXLAlqYTjH4H3pM+wXcCaztMBdydAC7wu/++JS76NzLJ3bXrmaePr6f28RDC0JamF5X0ALyznme99bzAbtStFzx8KxX5KBO72fDNzpfdTie99s4H1hOcfc6X24X1haIArTM+ZQ7w9AC8eZjPZ+ZnvlauCZnNleuRpvceu+ODXHevz+p4VbFojilmXu0H3JGL7X53vfra7MbK9cTTJEe9+d++J732x8V8r74pKF4X0ZutP7rSE4xyLbC9cE7ReXLJnthavBe5/j3QfvC8uZjL5vydECUbzFcJIhaMmIu5+Afw/kribGRO/HEZa05h8EuQfnWED8zCSAfkGirsVE73cbZskoS4RZgvt6lnvUQtz9uww6uCKqZzHS+5Ys8BwjLXPMUveMgRgTlkDUtWDHjLR0sTMW1J1jm1QfACIzYam9L5tUHc0iop5hsJkcvL6MpapGCOJHoZYL7YtMlccZsvdjsCvr3/2DlJ9p5LNlN7PT+8cp/RKAvPtoVwbDS1pKvzgz05UXtpTUiDnxwgm1iItbSr2hYcJyyTl2qDn3LGCkKy/WL4qG7BvSEtvtfV0ozZneZ2ehNCKl/t2D9d7Xagp+w+R7F/FDGAKUy/a+JgUfNpGvkbtBGAIaA/2iaHR9Q/f+o7SED/wsWo3IqH7ZWnJNpXtzFYtGQ3fl3lJRY6L39ZqjVZXbl4qa9EqWk6+bkJbu46vwUMPPcvQsICKq94PwOCU117QcfEVLBNTnlSJUUspiuF9Os9OIlPqugsYShhGzfdlE3hsRUJ+/aC3n98aCRc408tmyG+kt5zTXmsnHSQbk65fHIgs5BUQwuJ7gMDH1mUWxhe4bSxYqJ/1SWiOaZynU2Lj750LcF/LecLQkhXOM1nC0tMpYcs1pe6ZDhl8WPH0eK0zE3qI8WxI5srCcY+Uth/emkTO5SNN8yw8Ny33JKlp27cnyvlS3bPaGo+Wu6hnbaxhaWveQJQw/2F64LnEf0qw+/m575bpAmqfxqPOr7ZXrklTXrJ5Hv7S5aqrui7S0251PtleuS1xNs7O0bzovZ7aXrkncAyxS867hGmnZYdhqyk6B/O7f7i1N12wsPzFSw+/VWckJvVpKywFGTgHbK9elxN6slh9PMXwn9BnNajke3SqYG6aaHql5WjyPNBiue5NQE/rpc74xW8yJhuu9KdY8fVmOCzD53rCcaYWa9ZfFDqM5Z2z7Rq9Z/yEthRi+Gs0UkJY9RnfMmqRZf51sNobASI3tleuiaNZv3iz2mOOnmUbMtFcnlslie8zGowJJUzTSMvmcY55Jigx7zfprbpl8y7dmREs4783e8qe0TBbjM5vCWzP/Yfm2WN6WkWxPGs9ngfnGMpHH66a0Jd+b7yz7Zi67stzxaoDmr78rU7Yajidt9v5tdQvbZ4HZd6/hOqFn7yBNm+neYPeGraZToWYaoEEwbCc0tDd8NU7tDTihHdPYXrkuYN9wfRZwS+PWU6djGrBv3NIwndBge/7jNaaTT4EOkrcs3+WYvX8J5dO/tleuy+wFGNsL9/Fp/Qd9G639pNvcdQAAAABJRU5ErkJggg==;" vertex="1" parent="1">
          <mxGeometry x="100" y="430" width="111.56" height="105" as="geometry" />
        </mxCell>
        <mxCell id="vSYj0QuVzOI8qMEle1At-5" value="" style="shape=flexArrow;endArrow=classic;html=1;rounded=0;" edge="1" parent="1">
          <mxGeometry width="50" height="50" relative="1" as="geometry">
            <mxPoint x="260" y="490" as="sourcePoint" />
            <mxPoint x="340" y="490" as="targetPoint" />
            <Array as="points">
              <mxPoint x="300" y="490" />
            </Array>
          </mxGeometry>
        </mxCell>
        <mxCell id="vSYj0QuVzOI8qMEle1At-6" value="" style="shape=flexArrow;endArrow=classic;html=1;rounded=0;" edge="1" parent="1">
          <mxGeometry width="50" height="50" relative="1" as="geometry">
            <mxPoint x="550" y="450" as="sourcePoint" />
            <mxPoint x="600" y="400" as="targetPoint" />
          </mxGeometry>
        </mxCell>
        <mxCell id="vSYj0QuVzOI8qMEle1At-7" value="" style="shape=flexArrow;endArrow=classic;html=1;rounded=0;" edge="1" parent="1">
          <mxGeometry width="50" height="50" relative="1" as="geometry">
            <mxPoint x="550" y="540" as="sourcePoint" />
            <mxPoint x="610" y="570" as="targetPoint" />
          </mxGeometry>
        </mxCell>
      </root>
    </mxGraphModel>
  </diagram>
</mxfile>
